<?xml version="1.0" encoding="UTF-8"?>
<svg version="1.1" viewBox="0 0 2048 2048" width="1280" height="1280" xmlns="http://www.w3.org/2000/svg">
<path transform="translate(53,124)" d="m0 0h382l23 2 22 5 19 7 16 8 15 9 14 11 15 14 9 10 10 14 10 17 9 20 6 20 3 15 6 61 29 261 1 5 206 1v-189l4-14 6-11 9-10 7-6 16-8 11-2h307v-69l3-12 6-12 8-10 10-8 12-6 6-2 7-1h500l13 4 13 8 10 10 7 11 4 11 1 6v310h192l9 2 13 7 10 9 9 12 6 12 1 3v30l-4 18-17 102-25 151-24 144-24 145-11 63-6 21-8 20-8 15-9 13-7 9-9 10-10 10-17 13-15 9-16 8-16 6-25 6-6 1-16 1-1115 1-10 2-12 5-13 10-8 11-5 10-3 14v15l4 15 6 11 9 10 8 6 12 6 7 2 8 1 978 1 23 3 19 5 16 6 16 8 15 9 13 10 12 11 9 9 13 17 9 15 10 21 7 22 4 23 1 12v15l-2 23-6 25-8 21-10 19-12 17-12 14-9 9-14 11-15 10-17 9-18 7-25 6-13 2-15 1h-11l-22-2-25-6-21-8-19-10-17-12-15-13-14-15-12-17-8-14-8-17-6-18-5-25-1-10v-26l3-22 4-17 3-8h-380l4 13 4 19 2 22v11l-2 23-5 23-8 22-11 21-12 17-12 14-9 9-14 11-15 10-15 8-15 6-16 5-20 4-22 2h-11l-22-2-25-6-21-8-19-10-17-12-14-12-7-7-7-8-13-18-8-14-8-17-6-18-5-25-1-9v-27l3-22 4-17 3-8h-70l-20-1-19-3-21-6-19-8-15-8-13-9-10-8-12-11-11-12-12-17-8-13-9-21-5-15-5-25-1-8v-30l3-21 6-22 8-20 8-15 8-12 8-10 11-12 10-10 13-10 14-9 16-8 8-5-9-82-29-261-38-341-12-113-27-243-4-14-6-11-8-10-13-9-10-4-9-2-377-1-15-2-13-5-11-8-9-10-7-12-4-12v-24l5-12 7-12 6-7 13-9 12-5z" fill="#7EDA46"/>
<path transform="translate(1260,244)" d="m0 0h500l13 4 13 8 10 10 7 11 4 11 1 6v310h192l9 2 13 7 10 9 9 12 6 12 1 3v30l-4 18-17 102-25 151-24 144-24 145-11 63-6 21-8 20-8 15-9 13-7 9-9 10-10 10-17 13-15 9-16 8-16 6-25 6-6 1-16 1h-1072v-1l193-1 370-1-1-2h2v-30l1-61v-143l9-1 12-4 13-7 8-7h2l2-4 7-10 5-12 1-5v-263l-3-10-6-12-11-12-13-8-11-4-15-3-1-87v-144l1-6-396-1-24-1v-189l4-14 6-11 9-10 7-6 16-8 11-2h307v-69l3-12 6-12 8-10 10-8 12-6 6-2z" fill="#66C22B"/>
<path transform="translate(599,1337)" d="m0 0 3 1 8 61 5 12 6 10 5 6 10 7 8 4 15 5-3 2-16 6-10 7-7 6-7 11-4 8-3 14v15l4 15 6 11 9 10 8 6 12 6 7 2 8 1 978 1 23 3 19 5 16 6 16 8 15 9 13 10 12 11 9 9 13 17 9 15 10 21 7 22 4 23 1 12v15l-2 23-6 25-8 21-10 19-12 17-12 14-9 9-14 11-15 10-17 9-18 7-25 6-13 2-15 1h-11l-22-2-25-6-21-8-19-10-17-12-15-13-14-15-12-17-8-14-8-17-6-18-5-25-1-10v-26l3-22 4-17 3-8h-380l4 13 4 19 2 22v11l-2 23-5 23-8 22-11 21-12 17-12 14-9 9-14 11-15 10-15 8-15 6-16 5-20 4-22 2h-11l-22-2-25-6-21-8-19-10-17-12-14-12-7-7-7-8-13-18-8-14-8-17-6-18-5-25-1-9v-27l3-22 4-17 3-8h-70l-20-1-19-3-21-6-19-8-15-8-13-9-10-8-12-11-11-12-12-17-8-13-9-21-5-15-5-25-1-8v-30l3-21 6-22 8-20 8-15 8-12 8-10 11-12 10-10 13-10 14-9 16-8z" fill="#67554E"/>
<path transform="translate(1260,244)" d="m0 0h500l13 4 13 8 10 10 7 11 4 11 1 6v310l-1 1-545 1-390-1-24-1v-189l4-14 6-11 9-10 7-6 16-8 11-2h307v-69l3-12 6-12 8-10 10-8 12-6 6-2z" fill="#FEBF00"/>
<path transform="translate(1532,1564)" d="m0 0h109l23 3 19 5 16 6 16 8 15 9 13 10 12 11 9 9 13 17 9 15 10 21 7 22 4 23 1 12v15l-2 23-6 25-8 21-10 19-12 17-12 14-9 9-14 11-15 10-17 9-18 7-25 6-13 2-15 1h-11l-22-2-25-6-21-8-19-10-17-12-15-13-14-15-12-17-8-14-8-17-6-18-5-25-1-10v-26l3-22 4-17 4-9h-219v-1l27-1 1-115 1-1z" fill="#53443F"/>
<path transform="translate(53,124)" d="m0 0h382l23 2 22 5 19 7 16 8 15 9 14 11 15 14 9 10 10 14 10 17 9 20 6 20 3 15 6 61 29 261v6h-97l-24-1-14-128-20-180-4-14-6-11-8-10-13-9-10-4-9-2-377-1-15-2-13-5-11-8-9-10-7-12-4-12v-24l5-12 7-12 6-7 13-9 12-5z" fill="#66554E"/>
<path transform="translate(899,844)" d="m0 0h16l13 3 14 7 12 11 9 14 4 11 1 6 1 35v186l-1 35-5 16-6 10-9 10-9 7-10 5-8 3-6 1h-13l-16-4-12-6-12-11-7-10-5-11-2-8-1-10v-232l1-18 3-11 6-12 8-10 10-8 10-5 9-3z" fill="#FCFCFC"/>
<path transform="translate(1258,844)" d="m0 0h19l12 3 14 7 10 9 7 9 6 12 2 8v263l-4 13-8 13-4 5-13 10-15 7-5 1h-18l-15-4-12-6-11-9-7-10-5-10-3-11-1-9v-232l1-20 4-13 6-11 9-10 10-7 8-4z" fill="#FCFCFC"/>
<path transform="translate(1621,844)" d="m0 0h12l14 3 14 7 11 9 9 13 5 12 2 10v251l-4 16-5 10-8 10-9 8-16 8-6 2-7 1h-10l-14-3-16-8-11-10-9-14-4-12-1-6v-254l4-16 6-11 9-10 9-7 12-6z" fill="#FCFCFC"/>
<path transform="translate(901,1684)" d="m0 0h13l14 3 14 7 10 8 9 13 5 12 2 10v13l-4 16-6 12-9 10-9 7-10 5-15 4h-13l-16-4-12-6-10-9-6-7-6-12-3-9-1-6v-15l3-12 7-14 11-12 10-7 12-5z" fill="#FCFCFC"/>
<path transform="translate(1625,1684)" d="m0 0 15 1 13 4 10 6 10 9 6 8 5 10 3 10 1 7-1 16-4 13-6 11-9 10-10 7-11 5-14 3h-10l-14-3-9-4-10-6-10-10-8-15-3-10-1-7v-11l3-14 7-14 11-12 10-7 13-5z" fill="#FCFCFC"/>
<path transform="translate(752,1439)" d="m0 0h29l93 1 22 2v1h-204v-1l9-1 35-1z" fill="#66C32B"/>
<path transform="translate(688,604)" d="m0 0h87l19 1v1l-89 1h-22l-19-1v-1z" fill="#66C32B"/>
</svg>
