<?xml version="1.0" encoding="UTF-8"?>
<svg version="1.1" viewBox="0 0 900 900" width="1280" height="1280" xmlns="http://www.w3.org/2000/svg">
<path transform="translate(0)" d="m0 0h900v900h-900z" fill="#FCFDFC"/>
<path transform="translate(188,336)" d="m0 0h25l9 3 8 6 5 9v121l-5 9-10 7-2 1h-120l-7-3-7-5-3-5-1-4v-124l4-6 7-6 5-2z" fill="#A8CC3E"/>
<path transform="translate(111,355)" d="m0 0h9l2 1v43l-1 3 7-4 10-5h15l7 2 8 7 4 7 4 10 2 10-1 16-5 12-5 8-8 6-6 2h-19l-8-5-4-3-4 5-5 3-9 1-3-1v-117z" fill="#F81A2D"/>
<path transform="translate(252,356)" d="m0 0h20l1 4v35l-1 7 5-3 6-4 7-2h12l9 3 8 7 7 14 2 7v18l-4 13-7 9-8 6-9 3h-9l-10-3-7-6-4 2-5 5-7 2h-5l-1-1z" fill="#F91B2E"/>
<path transform="translate(385,393)" d="m0 0h14l7 3 8 7 8-7 4-1h7l1 1v77l-3 9-6 8-10 6-6 2-8 1h-12l-10-3-9-6-6-8-1-6 2-1h19l3 6 5 2h11l7-2 2-5 3-12 1-5-11 6-8 3h-12l-9-3-8-7-6-11-2-13v-8l2-11 6-11 9-8z" fill="#F91B2E"/>
<path transform="translate(445,355)" d="m0 0 12 1v47h2l2-4 7-5 8-2 12 1 10 5 6 7 5 10 1 5v22l-3 11-6 10-7 6-7 3-5 1h-9l-8-3-7-6-4 5-4 2h-5l-1-1v-114z" fill="#07080C"/>
<path transform="translate(546,392)" d="m0 0 13 1 8 3 8 7 2 4 1 12v36l2 6 6 2v7l-2 2h-12l-5-5-1-6-9 7-9 4-7 1h-8l-8-3-7-6-4-10v-7l3-10 8-7 10-3 25-4 4-2v-10l-4-5-7-2h-10l-7 3-9 9-2 1h-6l-1-4 3-8 3-5 7-5 7-2z" fill="#070A0F"/>
<path transform="translate(750,392)" d="m0 0 15 2 6 4 7 7 5 11 2 12v7l-1 1-35 1h-20l4 13 4 6 6 4 4 1h8l9-4 7-8 3-3h8l2 1-1 6-5 8-7 7-10 4-6 1h-9l-9-2-9-6-8-9-3-9-1-6v-13l3-14 5-9 7-7 8-4z" fill="#07090E"/>
<path transform="translate(660,355)" d="m0 0 9 1 1 1v60l1 10 14-14 16-14 9-3 4 3-1 4-13 13-8 7-1 4 4 5 10 16 14 21 1 4-16-1-4-5-12-20-7-11-4 2-7 7v27l-5 1h-7v-117z" fill="#07080C"/>
<path transform="translate(615,392)" d="m0 0 12 1 8 3 7 5 5 9v5l-9-2-10-7-5-1h-12l-6 3-3 6 2 5 9 4 24 7 8 4 4 6 1 4v8l-3 8-6 7-10 5-6 1h-11l-10-2-8-4-6-7-3-8v-5l1-1h11l3 9 6 4 7 2h8l9-3 4-5v-7l-1-3-10-3-20-5-10-5-4-5-1-3v-12l4-8 8-7 6-2z" fill="#060A0F"/>
<path transform="translate(473,404)" d="m0 0h8l8 3 5 6 3 8 1 15-2 11-6 10-7 4-9 1-8-3-6-7-3-7-1-16 2-11 6-10 5-3z" fill="#FCFDFC"/>
<path transform="translate(797,355)" d="m0 0h9l3 1v40l7 1 4 4v5h-7l-4-1v55l12 3v7l-3 2h-14l-5-3-3-8-1-54v-2l-8 1-2-9 1-1 9-1 1-39z" fill="#070B12"/>
<path transform="translate(334,395)" d="m0 0h19l1 1v69l-1 8h-19l-1-2v-75z" fill="#F91B2E"/>
<path transform="translate(282,546)" d="m0 0h19l3 4 13 36 2 5v3h-17l-3-5-7-19h-2l-7 22-2 2h-17l2-9 6-15 6-17 3-6z" fill="#0D6DCA"/>
<path transform="translate(375,546)" d="m0 0h19l3 5 15 40v3h-17l-2-1-7-23h-2l-8 21-3 3h-16l1-6 11-29 5-12z" fill="#0D6DCA"/>
<path transform="translate(170,394)" d="m0 0h18l10 4 5 5 6 9 4 13v17l-3 9-6 11-5 5-9 5-7 1-16-1-1-5 4-5h12l6-1v-2l3-1 4-7 3-6v-24l-4-9v-2h-2l-4-4-17-2-4-5 1-4z" fill="#060609"/>
<path transform="translate(135,409)" d="m0 0h10l6 5 4 8 1 14-2 10-6 9-4 2h-11l-8-7-4-9-1-5v-8l4-10 5-6z" fill="#A8CE3F"/>
<path transform="translate(285,409)" d="m0 0h10l6 4 4 6 2 6v14l-4 11-6 5-8 2-9-3-6-8-3-10v-8l3-8 4-6 4-4z" fill="#FDFEFD"/>
<path transform="translate(223,546)" d="m0 0h45l1 1v7l-2 6-11 1v23l-1 10h-18l-1-1-1-32-12-1-1-1v-12z" fill="#0D6DCA"/>
<path transform="translate(316,546)" d="m0 0h45l1 5-1 8-1 1-12 1v33h-18l-1-1-1-31-2-1-10-1-1-1v-12z" fill="#0D6DCA"/>
<path transform="translate(393,409)" d="m0 0h10l5 3 4 5 3 9v9l-3 9-8 7-3 1h-9l-6-4-5-10-1-9 2-9 3-6 5-4z" fill="#FDFEFD"/>
<path transform="translate(610,559)" d="m0 0h9l5 4 4 9v11l-5 8-5 3h-9l-7-3 2 13-1 4h-6l-3-2 1-46 11 1z" fill="#0C6ACB"/>
<path transform="translate(182,546)" d="m0 0h7l4 3 12 36 2 9-9-1-3-9-2-3-14-1-3 11-3 3h-6l1-7 7-23 6-17z" fill="#0C6BCA"/>
<path transform="translate(562,432)" d="m0 0 3 1v14l-3 6-7 6-8 3h-12l-6-5-1-2v-11l7-6 25-5z" fill="#FCFDFC"/>
<path transform="translate(437,547)" d="m0 0h27v6l-9 1h-10v12h18l1 1v5l-9 1h-10v13h19l1 1v7h-27l-1-1-1-20v-25z" fill="#0C6ACB"/>
<path transform="translate(747,404)" d="m0 0h8l7 2 5 5 4 7 1 9-38 1-6 1 1-6 5-10 5-5z" fill="#FCFDFC"/>
<path transform="translate(715,559)" d="m0 0h10l6 5 3 8v7h-22l1 6 3 2h11l4-1 2 3-3 4-3 1h-12l-6-3-4-4-1-3v-14l4-7 4-3z" fill="#034FD7"/>
<path transform="translate(486,559)" d="m0 0h9l5 3 3 12 1 19-1 1h-8l-1-1-1-26h-8l-3 1-1 3v22l-1 1h-7l-1-1-1-32 1-1h6l4 2z" fill="#0C6ACA"/>
<path transform="translate(544,559)" d="m0 0h11l7 6 2 9-1 5-5-1v-9l-4-2-3-2h-5l-4 4h-2l1 6-1 2v6h2l3 3 2 1h15v5l-3 2h-15l-6-4-4-5-1-3v-11l3-6 5-5z" fill="#0451D6"/>
<path transform="translate(684,559)" d="m0 0h10l3 2v5l-3 1-4-2h-5l-1 5 1 2 9 3 4 5v8l-5 5-2 1h-12l-4-3v-4h14l2-5-6-2-9-6v-8l3-5z" fill="#0453D5"/>
<path transform="translate(515,552)" d="m0 0h5l1 7 7 1 2 4-3 2h-6l1 19 6 4 1 5-7 1-5-2-3-3-1-3-1-20-4-3 1-4 4-1 1-6z" fill="#0C6CCA"/>
<path transform="translate(149,355)" d="m0 0h10l2 2v35l-3 1-9-3-1-8v-25z" fill="#06090E"/>
<path transform="translate(610,559)" d="m0 0h9l5 4 4 9v11l-5 8-5 3h-9l-4-4 10-2 4-6v-11l-4-4-10-1v-3l3-3z" fill="#0350D6"/>
<path transform="translate(571,560)" d="m0 0 5 1 1 3 6-4h6l1 5-9 4-1 5v19l-1 1h-7l-1-1-1-32z" fill="#0C6CCA"/>
<path transform="translate(635,560)" d="m0 0 7 1 3 1 3-2h6l1 5-3 2-7 1-1 26h-7l-1-1-1-12z" fill="#0D6DCA"/>
<path transform="translate(334,356)" d="m0 0h19l1 5-1 12h-19z" fill="#F91B2E"/>
<path transform="translate(608,566)" d="m0 0h7l5 5v11l-4 5-7 1-5-4-1-2v-9l2-5z" fill="#FDFEFD"/>
<path transform="translate(183,547)" d="m0 0h1v15h-2l-2 11-3 1-1 4 2 3-3 12-2 1h-6l1-7 7-23 5-15z" fill="#0450D6"/>
<path transform="translate(661,559)" d="m0 0 7 1v33l-1 1h-6l-1-1-1-30z" fill="#0350D6"/>
<path transform="translate(498,561)" d="m0 0 2 1 3 12 1 19-1 1h-8l-1-1-1-26 4-3z" fill="#0C6CCA"/>
<path transform="translate(546,564)" d="m0 0 7 1 5 4v9l2 1h-19l-1 4-1-7 1-2v-5z" fill="#0D6DCA"/>
<path transform="translate(684,559)" d="m0 0h10l3 2v5l-3 1-4-2h-5l-1 5 1 2 4 1-2 4-1 1-3 1-7-5v-8l3-5z" fill="#0452D5"/>
<path transform="translate(185,556)" d="m0 0h2l5 13v5h-11l1-8z" fill="#FDFEFD"/>
<path transform="translate(716,564)" d="m0 0h7l4 5v4l-16 1v-5z" fill="#FDFEFD"/>
<path transform="translate(546,564)" d="m0 0 7 1 4 4v4l-3 1h-11l-2-1 1-5z" fill="#FDFEFD"/>
<path transform="translate(515,552)" d="m0 0 4 1v5l-2 2-1 4 4 2v3h-5v5h-1v-7l-5-2-1-4 5-2 1-6z" fill="#0451D6"/>
<path transform="translate(727,569)" d="m0 0h1v6h-5v2l3 1v-2l7 2 1-2v3h-22l-2 4v-13l1 4 16-1z" fill="#0C6BCA"/>
<path transform="translate(518,583)" d="m0 0 3 3 7 3 1 5-7 1-5-2-1-4z" fill="#0451D6"/>
<path transform="translate(486,559)" d="m0 0h9l3 1-1 5-2 2-12-1z" fill="#0451D6"/>
<path transform="translate(518,552)" d="m0 0h2l1 7 7 1 2 4-3 2h-6l-1 2-4-4 1-5 1-3z" fill="#0D6DCA"/>
<path transform="translate(662,545)" d="m0 0 5 1 1 1-1 7-6-1-2-4 1-3z" fill="#0555D4"/>
<path transform="translate(689,574)" d="m0 0 5 1 1 2-3 9-1-4-6-2-1-3z" fill="#0C6BCA"/>
<path transform="translate(583,560)" d="m0 0h6l1 5-7 3h-3l1-7z" fill="#0452D5"/>
<path transform="translate(648,560)" d="m0 0h6l1 5-3 2h-7l1-4z" fill="#0451D6"/>
<path transform="translate(635,560)" d="m0 0h5l1 3-3 9-3-2z" fill="#0451D6"/>
<path transform="translate(523,560)" d="m0 0h5l2 4-1 1-9-1 1-3z" fill="#0350D6"/>
<path transform="translate(451,548)" d="m0 0h12v3l-4 1-9-2z" fill="#0147DB"/>
<path transform="translate(571,560)" d="m0 0 5 1-1 5h-2v8h-1v-11h-2z" fill="#034ED7"/>
<path transform="translate(516,564)" d="m0 0 4 2v3h-5v5h-1l-1-8z" fill="#0148DA"/>
</svg>
